<svg width="25" height="26" viewBox="0 0 25 26" fill="none" xmlns="http://www.w3.org/2000/svg">
<path d="M3.61447 20.7302C6.34579 19.1864 9.43082 18.3773 12.5682 18.3821C15.8223 18.3821 18.8771 19.2347 21.522 20.7302M16.4731 10.5724C16.4731 11.6081 16.0617 12.6013 15.3294 13.3336C14.5971 14.0659 13.6039 14.4773 12.5682 14.4773C11.5326 14.4773 10.5394 14.0659 9.80711 13.3336C9.07481 12.6013 8.66341 11.6081 8.66341 10.5724C8.66341 9.53682 9.07481 8.54361 9.80711 7.81132C10.5394 7.07902 11.5326 6.66762 12.5682 6.66762C13.6039 6.66762 14.5971 7.07902 15.3294 7.81132C16.0617 8.54361 16.4731 9.53682 16.4731 10.5724ZM24.2827 13.1757C24.2827 14.714 23.9797 16.2373 23.391 17.6586C22.8023 19.0799 21.9394 20.3713 20.8516 21.4591C19.7638 22.5468 18.4724 23.4097 17.0512 23.9984C15.6299 24.5871 14.1066 24.8901 12.5682 24.8901C11.0299 24.8901 9.50657 24.5871 8.0853 23.9984C6.66404 23.4097 5.37264 22.5468 4.28485 21.4591C3.19706 20.3713 2.33418 19.0799 1.74547 17.6586C1.15676 16.2373 0.85376 14.714 0.85376 13.1757C0.85376 10.0688 2.08796 7.08917 4.28485 4.89227C6.48174 2.69538 9.46137 1.46118 12.5682 1.46118C15.6751 1.46118 18.6547 2.69538 20.8516 4.89227C23.0485 7.08917 24.2827 10.0688 24.2827 13.1757Z" stroke="white" stroke-width="1.41994" stroke-linecap="round" stroke-linejoin="round"/>
</svg>
