<svg width="27" height="24" viewBox="0 0 27 24" fill="none" xmlns="http://www.w3.org/2000/svg">
<path d="M12.0358 17.9789C12.0358 17.5765 12.1182 17.2201 12.2831 16.9098C12.4528 16.5995 12.6806 16.3595 12.9667 16.1898C13.2576 16.0153 13.5776 15.928 13.9267 15.928C14.2418 15.928 14.5158 15.991 14.7485 16.1171C14.9861 16.2383 15.1752 16.391 15.3158 16.5753V15.9935H16.1521V20.0007H15.3158V19.4044C15.1752 19.5935 14.9837 19.751 14.7412 19.8771C14.4988 20.0032 14.2224 20.0662 13.9121 20.0662C13.5679 20.0662 13.2528 19.9789 12.9667 19.8044C12.6806 19.625 12.4528 19.3777 12.2831 19.0626C12.1182 18.7426 12.0358 18.3813 12.0358 17.9789ZM15.3158 17.9935C15.3158 17.7171 15.2576 17.4771 15.1412 17.2735C15.0297 17.0698 14.8818 16.9147 14.6976 16.808C14.5134 16.7013 14.3146 16.648 14.1012 16.648C13.8879 16.648 13.6891 16.7013 13.5049 16.808C13.3206 16.9098 13.1703 17.0626 13.054 17.2662C12.9424 17.465 12.8867 17.7026 12.8867 17.9789C12.8867 18.2553 12.9424 18.4977 13.054 18.7062C13.1703 18.9147 13.3206 19.0747 13.5049 19.1862C13.694 19.2929 13.8928 19.3462 14.1012 19.3462C14.3146 19.3462 14.5134 19.2929 14.6976 19.1862C14.8818 19.0795 15.0297 18.9244 15.1412 18.7207C15.2576 18.5122 15.3158 18.2698 15.3158 17.9935ZM19.932 13.1353L17.9538 21.2735H17.1393L19.1102 13.1353H19.932ZM26.6424 14.6189V15.2589H25.7551V20.0007H24.9987V17.7607L23.9951 17.7535C24.0436 17.8941 24.0678 18.0419 24.0678 18.1971C24.0678 18.6189 23.9321 18.9583 23.6606 19.2153C23.389 19.4722 23.0303 19.6007 22.5842 19.6007C22.2642 19.6007 21.9781 19.5377 21.726 19.4116C21.4787 19.2856 21.2848 19.111 21.1442 18.888C21.0084 18.6601 20.9406 18.4007 20.9406 18.1098H21.6533C21.6533 18.3522 21.7333 18.5535 21.8933 18.7135C22.0581 18.8686 22.2715 18.9462 22.5333 18.9462C22.7903 18.9462 22.9939 18.871 23.1442 18.7207C23.2945 18.5704 23.3696 18.3716 23.3696 18.1244C23.3696 17.9838 23.343 17.8601 23.2896 17.7535H23.2751V17.7171C23.1199 17.4407 22.846 17.3026 22.4533 17.3026H22.1551V16.6844H22.4533C22.7199 16.6844 22.926 16.6141 23.0715 16.4735C23.2218 16.328 23.2969 16.1559 23.2969 15.9571C23.2969 15.7292 23.2218 15.5474 23.0715 15.4116C22.926 15.271 22.7418 15.2007 22.5187 15.2007C22.286 15.2007 22.0896 15.2686 21.9296 15.4044C21.7745 15.5353 21.6969 15.7122 21.6969 15.9353H20.9915C20.9915 15.6589 21.0545 15.4165 21.1806 15.208C21.3115 14.9995 21.4933 14.8395 21.726 14.728C21.9587 14.6116 22.223 14.5535 22.5187 14.5535C22.9551 14.5535 23.3066 14.6722 23.5733 14.9098C23.8448 15.1474 23.9806 15.4626 23.9806 15.8553C23.9806 16.1316 23.9078 16.3692 23.7624 16.568C23.6169 16.7619 23.406 16.8953 23.1296 16.968V16.9826C23.2654 17.0116 23.3915 17.0601 23.5078 17.128H24.9987V14.6189H26.6424Z" fill="white"/>
<path fill-rule="evenodd" clip-rule="evenodd" d="M5.48506 5.09261C6.71519 3.86247 8.23229 2.98529 9.87901 2.52621C9.6142 3.02277 9.38014 3.58851 9.17586 4.2014C8.54825 6.0844 8.14951 8.57186 8.07924 11.3054H2.5887C2.79267 8.96769 3.81271 6.76496 5.48506 5.09261ZM4.25306 3.86061C6.4586 1.65507 9.44995 0.416016 12.569 0.416016C15.6881 0.416016 18.6795 1.65507 20.885 3.86061C23.0491 6.02466 24.2827 8.94524 24.3283 12.0007H14.8712L14.3001 13.0477H9.82215C9.89222 15.6326 10.2707 17.9266 10.8288 19.6009C11.1403 20.5355 11.492 21.229 11.8403 21.671C11.9851 21.8547 12.1128 21.9756 12.2214 22.0544L12.3661 23.9354C9.32046 23.8829 6.41073 22.6502 4.25306 20.4926C2.04753 18.287 0.808472 15.2957 0.808472 12.1766C0.808472 9.05749 2.04753 6.06614 4.25306 3.86061ZM19.653 5.09261C18.4229 3.86248 16.9058 2.98529 15.2591 2.52621C15.5239 3.02277 15.7579 3.58851 15.9622 4.2014C16.5898 6.0844 16.9886 8.57186 17.0589 11.3054H22.5494C22.3454 8.96769 21.3254 6.76496 19.653 5.09261ZM14.3093 4.75233C14.8674 6.42659 15.2459 8.72054 15.3159 11.3054H9.82215C9.89222 8.72054 10.2707 6.42659 10.8288 4.75233C11.1403 3.81771 11.492 3.12418 11.8403 2.68221C12.1964 2.2304 12.4492 2.15832 12.569 2.15832C12.6889 2.15832 12.9417 2.2304 13.2978 2.68221C13.6461 3.12418 13.9978 3.81771 14.3093 4.75233ZM2.5887 13.0477H8.07924C8.14951 15.7813 8.54825 18.2688 9.17586 20.1518C9.38014 20.7647 9.6142 21.3304 9.87901 21.827C8.23229 21.3679 6.71519 20.4907 5.48506 19.2606C3.81271 17.5882 2.79267 15.3855 2.5887 13.0477Z" fill="white"/>
</svg>
