<svg width="27" height="28" viewBox="0 0 27 28" fill="none" xmlns="http://www.w3.org/2000/svg">
<path d="M0.824219 14.7154C0.824219 14.27 1.18531 13.9089 1.63073 13.9089H25.8262C26.2716 13.9089 26.6327 14.27 26.6327 14.7154C26.6327 15.1609 26.2716 15.5219 25.8262 15.5219H1.63073C1.18531 15.5219 0.824219 15.1609 0.824219 14.7154Z" fill="white"/>
<path d="M20.1806 0.271484H7.27634C5.49463 0.271484 4.05028 1.71584 4.05028 3.49754V12.0026H5.66331V3.49754C5.66331 2.60669 6.38548 1.88451 7.27634 1.88451H20.1806C21.0714 1.88451 21.7936 2.60669 21.7936 3.49754V12.0026H23.4066V3.49754C23.4066 1.71584 21.9623 0.271484 20.1806 0.271484Z" fill="white"/>
<path d="M23.4066 17.5745H21.7936V24.027C21.7936 24.9179 21.0714 25.64 20.1806 25.64H7.27634C6.38548 25.64 5.66331 24.9179 5.66331 24.027V17.5745H4.05028V24.027C4.05028 25.8087 5.49463 27.2531 7.27634 27.2531H20.1806C21.9623 27.2531 23.4066 25.8087 23.4066 24.027V17.5745Z" fill="white"/>
<path d="M9.03687 7.89674C9.03687 7.24885 9.56209 6.72363 10.21 6.72363H17.2487C17.8965 6.72363 18.4218 7.24885 18.4218 7.89675V13.7623C18.4218 14.4102 17.8965 14.9354 17.2487 14.9354H10.21C9.56209 14.9354 9.03687 14.4102 9.03687 13.7623V7.89674ZM9.62342 13.1758V13.7623C9.62342 14.0863 9.88603 14.3489 10.21 14.3489H17.2487C17.5726 14.3489 17.8352 14.0863 17.8352 13.7623V11.7094L15.6201 10.5672C15.5072 10.5108 15.3709 10.5329 15.2816 10.6221L13.1054 12.7984L11.5458 11.7586C11.4295 11.6811 11.2746 11.6964 11.1757 11.7953L9.62342 13.1758ZM12.5562 9.36314C12.5562 8.87722 12.1623 8.4833 11.6764 8.4833C11.1904 8.4833 10.7965 8.87722 10.7965 9.36314C10.7965 9.84905 11.1904 10.243 11.6764 10.243C12.1623 10.243 12.5562 9.84905 12.5562 9.36314Z" fill="white"/>
<path d="M12.5553 16.9884C12.5553 17.4743 12.1614 17.8682 11.6755 17.8682C11.1896 17.8682 10.7957 17.4743 10.7957 16.9884C10.7957 16.5025 11.1896 16.1085 11.6755 16.1085C12.1614 16.1085 12.5553 16.5025 12.5553 16.9884Z" fill="white"/>
<path d="M10.2091 14.3489C9.56123 14.3489 9.03601 14.8741 9.03601 15.522V21.3876C9.03601 22.0354 9.56123 22.5607 10.2091 22.5607H17.2478C17.8957 22.5607 18.4209 22.0354 18.4209 21.3876V15.522C18.4209 14.8741 17.8957 14.3489 17.2478 14.3489H10.2091ZM17.2478 14.9354C17.5717 14.9354 17.8344 15.198 17.8344 15.522V19.3346L15.6193 18.1925C15.5064 18.136 15.37 18.1581 15.2807 18.2474L13.1045 20.4236L11.5449 19.3839C11.4286 19.3063 11.2737 19.3217 11.1749 19.4205L9.62257 20.801V15.522C9.62257 15.198 9.88518 14.9354 10.2091 14.9354H17.2478Z" fill="white"/>
</svg>
