<svg width="24" height="24" viewBox="0 0 24 24" fill="none" xmlns="http://www.w3.org/2000/svg">
<path d="M9.47126 18.0579H14.9687M12.2206 1.58789V2.76432M19.7074 4.68897L18.8757 5.5207M22.8085 12.1758H21.632M2.80912 12.1758H1.63269M5.5655 5.5207L4.73377 4.68897M8.06072 16.3356C7.23824 15.5129 6.67817 14.4648 6.45133 13.3239C6.22449 12.1829 6.34107 11.0002 6.78632 9.92551C7.23157 8.85078 7.98551 7.9322 8.95279 7.28593C9.92007 6.63966 11.0573 6.29472 12.2206 6.29472C13.3839 6.29472 14.5211 6.63966 15.4884 7.28593C16.4557 7.9322 17.2096 8.85078 17.6548 9.92551C18.1001 11.0002 18.2167 12.1829 17.9898 13.3239C17.763 14.4648 17.2029 15.5129 16.3804 16.3356L15.7358 16.9792C15.3672 17.3478 15.0748 17.7854 14.8754 18.267C14.676 18.7487 14.5734 19.2648 14.5734 19.7861V20.4108C14.5734 21.0348 14.3256 21.6333 13.8843 22.0745C13.4431 22.5158 12.8446 22.7637 12.2206 22.7637C11.5966 22.7637 10.9981 22.5158 10.5569 22.0745C10.1156 21.6333 9.86772 21.0348 9.86772 20.4108V19.7861C9.86772 18.7332 9.44891 17.7227 8.7054 16.9792L8.06072 16.3356Z" stroke="white" stroke-width="2.35286" stroke-linecap="round" stroke-linejoin="round"/>
</svg>
