<svg width="25" height="25" viewBox="0 0 25 25" fill="none" xmlns="http://www.w3.org/2000/svg">
<path d="M4.57422 12.1758H1.82422M4.57422 12.1758C4.57422 12.9051 4.86395 13.6046 5.37967 14.1203C5.8954 14.636 6.59487 14.9258 7.32422 14.9258C8.05356 14.9258 8.75304 14.636 9.26876 14.1203C9.78449 13.6046 10.0742 12.9051 10.0742 12.1758M4.57422 12.1758C4.57422 11.4464 4.86395 10.747 5.37967 10.2312C5.8954 9.71551 6.59487 9.42578 7.32422 9.42578C8.05356 9.42578 8.75304 9.71551 9.26876 10.2312C9.78449 10.747 10.0742 11.4464 10.0742 12.1758M10.0742 12.1758H23.8242M21.0742 20.4258C21.0742 19.6964 20.7845 18.997 20.2688 18.4812C19.753 17.9655 19.0536 17.6758 18.3242 17.6758C17.5949 17.6758 16.8954 17.9655 16.3797 18.4812C15.864 18.997 15.5742 19.6964 15.5742 20.4258M21.0742 20.4258C21.0742 21.1551 20.7845 21.8546 20.2688 22.3703C19.753 22.8861 19.0536 23.1758 18.3242 23.1758C17.5949 23.1758 16.8954 22.8861 16.3797 22.3703C15.864 21.8546 15.5742 21.1551 15.5742 20.4258M21.0742 20.4258H23.8242M15.5742 20.4258H1.82422M21.0742 3.92578C21.0742 3.19644 20.7845 2.49696 20.2688 1.98124C19.753 1.46551 19.0536 1.17578 18.3242 1.17578C17.5949 1.17578 16.8954 1.46551 16.3797 1.98124C15.864 2.49696 15.5742 3.19644 15.5742 3.92578M21.0742 3.92578C21.0742 4.65513 20.7845 5.3546 20.2688 5.87032C19.753 6.38605 19.0536 6.67578 18.3242 6.67578C17.5949 6.67578 16.8954 6.38605 16.3797 5.87032C15.864 5.3546 15.5742 4.65513 15.5742 3.92578M21.0742 3.92578H23.8242M15.5742 3.92578H1.82422" stroke="white" stroke-width="2" stroke-linecap="round" stroke-linejoin="round"/>
</svg>
