<svg width="25" height="22" viewBox="0 0 25 22" fill="none" xmlns="http://www.w3.org/2000/svg">
<path d="M3.24906 3.40127C2.73293 3.93863 2.32352 4.57658 2.04419 5.27869C1.76486 5.98079 1.62109 6.7333 1.62109 7.49326C1.62109 8.25321 1.76486 9.00572 2.04419 9.70783C2.32352 10.4099 2.73293 11.0479 3.24906 11.5852L12.7375 20.6453L22.2258 11.5852C23.2682 10.5 23.8538 9.02805 23.8538 7.49326C23.8538 5.95846 23.2682 4.48653 22.2258 3.40127C21.1835 2.31601 19.7697 1.70631 18.2956 1.70631C16.8215 1.70631 15.4077 2.31601 14.3654 3.40127L12.7375 5.09619L11.1095 3.40127C10.5934 2.8639 9.98068 2.43763 9.30633 2.14681C8.63198 1.85598 7.90921 1.7063 7.1793 1.7063C6.44938 1.7063 5.72662 1.85598 5.05227 2.14681C4.37792 2.43763 3.76519 2.8639 3.24906 3.40127Z" stroke="white" stroke-width="1.64687" stroke-linecap="round" stroke-linejoin="round"/>
</svg>
